<?xml version="1.0" encoding="iso-8859-1"?>
<!-- Generator: Adobe Illustrator 19.0.0, SVG Export Plug-In . SVG Version: 6.00 Build 0)  -->
<svg version="1.1" id="Capa_1" xmlns="http://www.w3.org/2000/svg" xmlns:xlink="http://www.w3.org/1999/xlink" x="0px" y="0px"
	 viewBox="0 0 512 512" style="enable-background:new 0 0 512 512;" xml:space="preserve">
<path style="fill:#718882;" d="M512,256c0,73.947-31.357,140.581-81.502,187.308C384.773,485.93,323.438,512,256,512
	c-67.448,0-128.784-26.081-174.508-68.702C31.347,396.57,0,329.947,0,256C0,114.615,114.615,0,256,0S512,114.615,512,256z"/>
<path style="fill:#81091A;" d="M430.497,181.71c0-13.776-31.379-33.293-87.632-30.614c-56.253,2.678-254.097,32.371-261.368,74.543
	c0,0,31.284,13.568,155.271,21.891s182.249-40.18,182.249-40.18L430.497,181.71z"/>
<path style="fill:#DF352E;" d="M430.497,138.772c-5.74,33.293-113.655,50.896-188.659,63.141
	c-75.005,12.245-139.293,13.777-160.341,23.727V95.608c21.047-9.95,85.337-11.48,160.342-23.725s182.919-29.85,188.658-63.142
	V138.772z"/>
<path style="fill:#81091A;" d="M430.497,354.679c0-13.776-31.379-33.293-87.632-30.614c-56.253,2.678-254.097,32.371-261.368,74.543
	c0,0,31.284,13.568,155.271,21.891c123.987,8.324,182.249-40.181,182.249-40.181L430.497,354.679z"/>
<g>
	<path style="fill:#DF352E;" d="M430.497,311.741c-5.74,33.293-113.655,50.896-188.659,63.141
		c-75.005,12.245-139.293,13.777-160.341,23.726V268.577c21.047-9.95,85.337-11.48,160.342-23.725s182.919-29.849,188.659-63.141
		v130.03H430.497z"/>
	<path style="fill:#DF352E;" d="M430.498,354.68v88.628C384.773,485.93,323.438,512,256,512
		c-67.448,0-128.784-26.081-174.508-68.702v-1.755c21.055-9.947,85.337-11.473,160.35-23.719
		C316.844,405.577,424.761,387.971,430.498,354.68z"/>
</g>
<g>
</g>
<g>
</g>
<g>
</g>
<g>
</g>
<g>
</g>
<g>
</g>
<g>
</g>
<g>
</g>
<g>
</g>
<g>
</g>
<g>
</g>
<g>
</g>
<g>
</g>
<g>
</g>
<g>
</g>
</svg>
